<?xml version="1.0" encoding="UTF-8"?>
<svg width="200" height="200" viewBox="0 0 200 200" fill="none" xmlns="http://www.w3.org/2000/svg">
  <path d="M100 40C85 40 75 50 75 65C75 80 85 90 100 90C115 90 125 80 125 65C125 50 115 40 100 40Z" fill="black"/>
  <path d="M130 95H70C60 95 50 105 50 115V150C50 160 60 170 70 170H130C140 170 150 160 150 150V115C150 105 140 95 130 95ZM100 150C90 150 80 140 80 130C80 120 90 110 100 110C110 110 120 120 120 130C120 140 110 150 100 150Z" fill="black"/>
  <text x="100" y="135" text-anchor="middle" font-size="24" font-family="Arial" fill="white">tv+</text>
</svg> 