<?xml version="1.0" encoding="UTF-8"?>
<svg width="200" height="200" viewBox="0 0 200 200" fill="none" xmlns="http://www.w3.org/2000/svg">
  <path d="M100 20C55.8172 20 20 55.8172 20 100C20 144.183 55.8172 180 100 180C144.183 180 180 144.183 180 100C180 55.8172 144.183 20 100 20Z" fill="#175DDC"/>
  <path d="M100 45C69.0721 45 44 70.0721 44 101C44 131.928 69.0721 157 100 157C130.928 157 156 131.928 156 101C156 70.0721 130.928 45 100 45ZM100 134C81.7746 134 67 119.225 67 101C67 82.7746 81.7746 68 100 68C118.225 68 133 82.7746 133 101C133 119.225 118.225 134 100 134Z" fill="white"/>
</svg> 